<mxfile host="app.diagrams.net" modified="2024-04-09T23:26:30.439Z" agent="Mozilla/5.0 (Windows NT 10.0; Win64; x64) AppleWebKit/537.36 (KHTML, like Gecko) Chrome/123.0.0.0 Safari/537.36" version="24.2.3" etag="9lIOqrZXPWXs1XemptNu" type="github">
  <diagram name="Page-1" id="bwvEn3LIaASbJbwihMey">
    <mxGraphModel>
      <root>
        <mxCell id="0" />
        <mxCell id="1" parent="0" />
      </root>
    </mxGraphModel>
  </diagram>
</mxfile>
